# xmcd
#
# Track frame offsets: 
#        150
#        14415
#        26587
#        37890
#        49795
#        60647
#        73702
#        87905
#        99820
#        108797
#        115472
#        132560
#
# Disc length: 1958 seconds
#
# Revision: 0
# Processed by: cddbd v1.5.1PL0 Copyright (c) Steve Scherf et al.
# Submitted via: ExactAudioCopy v0.95a5
#
DISCID=9907a40c
DTITLE=Radio Sweethearts - New Memories
DYEAR=1996
DGENRE=Country
TTITLE0=Lonely Footsteps
TTITLE1=Every Other Song
TTITLE2=Beer and Whisky
TTITLE3=Is Anybody Going To San Antone
TTITLE4=A House Of Gold
TTITLE5=I Saw The Light
TTITLE6=New Memories
TTITLE7=Headin' On Down The Highway
TTITLE8=Red Cadillac And A Black Moustache
TTITLE9=Don't Make Me Wait
TTITLE10=We're Fallen Out Of Love Again
TTITLE11=Out In The Darkness
EXTD=
EXTT0=
EXTT1=
EXTT2=
EXTT3=
EXTT4=
EXTT5=
EXTT6=
EXTT7=
EXTT8=
EXTT9=
EXTT10=
EXTT11=
PLAYORDER=
